<svg width="80" height="80" viewBox="0 0 80 80" fill="none" xmlns="http://www.w3.org/2000/svg">
<rect width="79.1834" height="79.1834" rx="39.5917" fill="#EFEEF3"/>
<g clip-path="url(#clip0_2014_48234)">
<path d="M56.6365 64.0408C54.0761 64.0408 51.6845 64.0618 49.2966 64.0081C49.0512 64.0023 48.6967 63.5942 48.5932 63.3009C47.4971 60.1695 46.4199 57.0323 45.389 53.8779C45.1571 53.1668 44.8619 52.8737 44.0589 52.889C41.1861 52.9483 38.3116 52.933 35.4388 52.8967C34.7411 52.887 34.4346 53.1228 34.2257 53.7839C33.2292 56.9135 32.1617 60.022 31.1613 63.1515C30.9563 63.7916 30.6879 64.081 29.9712 64.0638C27.9934 64.0139 26.0118 64.0464 24.0341 64.0388C23.7887 64.0388 23.5454 63.989 23.1602 63.9468C23.6278 62.5784 24.0666 61.2887 24.5055 60.0009C28.2866 48.9181 32.0754 37.8392 35.8258 26.7469C36.0827 25.9898 36.4373 25.7848 37.1847 25.8039C39.0666 25.8538 40.9523 25.8422 42.8343 25.8078C43.4323 25.7962 43.7293 25.9649 43.9324 26.5647C48.0681 38.7399 52.2268 50.9054 56.3778 63.0748C56.4679 63.3393 56.5234 63.6153 56.6365 64.0408ZM39.7719 36.6452C38.6181 40.0641 37.5507 43.2283 36.4603 46.4574H43.1544C42.0351 43.209 40.9504 40.0622 39.7719 36.6452Z" fill="#808099"/>
<path d="M60.038 19.1812C58.2673 19.7102 56.5636 20.4327 54.7947 20.6722C53.662 20.8255 52.4394 20.2295 51.2454 20.034C43.0737 18.7002 35.1895 19.4725 27.8572 23.5507C26.0673 24.5453 24.5284 25.998 22.909 27.282C22.6004 27.5274 22.4509 27.972 22.2267 28.3245C22.106 28.2479 21.9852 28.1712 21.8664 28.0965C21.6192 27.4181 21.3643 26.7416 21.1286 26.0594C20.7012 24.8232 20.3352 23.5622 19.8484 22.351C19.5303 21.5576 19.6472 21.1437 20.4234 20.678C24.5648 18.1942 29.0473 16.6803 33.7828 15.929C42.4374 14.5569 50.8985 15.2506 59.076 18.568C59.3404 18.6753 59.6011 18.7941 59.8579 18.9187C59.9058 18.9417 59.9308 19.0183 60.0399 19.1831L60.038 19.1812Z" fill="#808099"/>
</g>
<defs>
<clipPath id="clip0_2014_48234">
<rect width="41.7318" height="49.2221" fill="white" transform="translate(19.2617 14.9814)"/>
</clipPath>
</defs>
</svg>
