<svg xmlns="http://www.w3.org/2000/svg" width="97.9" height="26.0" viewBox="0 0 97.9 26.0" role="img" aria-label="Boosts"><g transform="translate(-2.297,21.577) scale(0.03022,-0.03022)" fill="#151515"><path d="M201.0 415H405.0Q450.0 415 480.0 440.5Q510.0 466 510.0 514Q510.0 568 483.0 590.0Q456.0 612 405.0 612H201.0ZM76.0 714H423.0Q519.0 714 577.0 670.0Q635.0 626 635.0 537Q635.0 483 608.5 444.5Q582.0 406 533.0 385V383Q599.0 369 633.0 320.5Q667.0 272 667.0 199Q667.0 157 652.0 120.5Q637.0 84 605.0 57.5Q573.0 31 523.0 15.5Q473.0 0 404.0 0H76.0ZM201.0 102H422.0Q479.0 102 510.5 131.5Q542.0 161 542.0 215Q542.0 268 510.5 296.5Q479.0 325 422.0 325H201.0Z"/><path d="M991.0 -14Q929.0 -14 880.5 6.5Q832.0 27 798.5 63.0Q765.0 99 747.5 149.0Q730.0 199 730.0 259Q730.0 318 747.5 368.0Q765.0 418 798.5 454.0Q832.0 490 880.5 510.5Q929.0 531 991.0 531Q1053.0 531 1101.5 510.5Q1150.0 490 1183.5 454.0Q1217.0 418 1234.5 368.0Q1252.0 318 1252.0 259Q1252.0 199 1234.5 149.0Q1217.0 99 1183.5 63.0Q1150.0 27 1101.5 6.5Q1053.0 -14 991.0 -14ZM991.0 76Q1029.0 76 1057.0 92.0Q1085.0 108 1103.0 134.0Q1121.0 160 1129.5 192.5Q1138.0 225 1138.0 259Q1138.0 292 1129.5 325.0Q1121.0 358 1103.0 383.5Q1085.0 409 1057.0 425.0Q1029.0 441 991.0 441Q953.0 441 925.0 425.0Q897.0 409 879.0 383.5Q861.0 358 852.5 325.0Q844.0 292 844.0 259Q844.0 225 852.5 192.5Q861.0 160 879.0 134.0Q897.0 108 925.0 92.0Q953.0 76 991.0 76Z"/><path d="M1574.0 -14Q1512.0 -14 1463.5 6.5Q1415.0 27 1381.5 63.0Q1348.0 99 1330.5 149.0Q1313.0 199 1313.0 259Q1313.0 318 1330.5 368.0Q1348.0 418 1381.5 454.0Q1415.0 490 1463.5 510.5Q1512.0 531 1574.0 531Q1636.0 531 1684.5 510.5Q1733.0 490 1766.5 454.0Q1800.0 418 1817.5 368.0Q1835.0 318 1835.0 259Q1835.0 199 1817.5 149.0Q1800.0 99 1766.5 63.0Q1733.0 27 1684.5 6.5Q1636.0 -14 1574.0 -14ZM1574.0 76Q1612.0 76 1640.0 92.0Q1668.0 108 1686.0 134.0Q1704.0 160 1712.5 192.5Q1721.0 225 1721.0 259Q1721.0 292 1712.5 325.0Q1704.0 358 1686.0 383.5Q1668.0 409 1640.0 425.0Q1612.0 441 1574.0 441Q1536.0 441 1508.0 425.0Q1480.0 409 1462.0 383.5Q1444.0 358 1435.5 325.0Q1427.0 292 1427.0 259Q1427.0 225 1435.5 192.5Q1444.0 160 1462.0 134.0Q1480.0 108 1508.0 92.0Q1536.0 76 1574.0 76Z"/><path d="M2006.0 166Q2011.0 116 2044.0 96.0Q2077.0 76 2123.0 76Q2139.0 76 2159.5 78.5Q2180.0 81 2198.0 88.0Q2216.0 95 2227.5 108.5Q2239.0 122 2238.0 144.0Q2237.0 166 2222.0 180.0Q2207.0 194 2183.5 202.5Q2160.0 211 2130.0 217.0Q2100.0 223 2069.0 230Q2037.0 237 2007.5 247.0Q1978.0 257 1954.5 274.0Q1931.0 291 1917.0 317.5Q1903.0 344 1903.0 383Q1903.0 425 1923.5 453.5Q1944.0 482 1975.5 499.5Q2007.0 517 2045.5 524.0Q2084.0 531 2119.0 531Q2159.0 531 2195.5 522.5Q2232.0 514 2261.5 495.0Q2291.0 476 2310.5 445.5Q2330.0 415 2335.0 372H2216.0Q2208.0 413 2178.5 427.0Q2149.0 441 2111.0 441Q2099.0 441 2082.5 439.0Q2066.0 437 2051.5 431.5Q2037.0 426 2027.0 415.5Q2017.0 405 2017.0 388Q2017.0 367 2031.5 354.0Q2046.0 341 2069.5 332.5Q2093.0 324 2123.0 318.0Q2153.0 312 2185.0 305Q2216.0 298 2246.0 288.0Q2276.0 278 2299.5 261.0Q2323.0 244 2337.5 218.0Q2352.0 192 2352.0 154Q2352.0 108 2331.0 76.0Q2310.0 44 2276.5 24.0Q2243.0 4 2202.0 -5.0Q2161.0 -14 2121.0 -14Q2072.0 -14 2030.5 -3.0Q1989.0 8 1958.5 30.5Q1928.0 53 1910.5 86.5Q1893.0 120 1892.0 166Z"/><path d="M2377.0 517H2463.0V672H2577.0V517H2680.0V432H2577.0V156Q2577.0 138 2578.5 125.0Q2580.0 112 2585.5 103.0Q2591.0 94 2602.0 89.5Q2613.0 85 2632.0 85Q2644.0 85 2656.0 85.5Q2668.0 86 2680.0 89V1Q2661.0 -1 2643.0 -3.0Q2625.0 -5 2606.0 -5Q2561.0 -5 2533.5 3.5Q2506.0 12 2490.5 28.5Q2475.0 45 2469.5 70.0Q2464.0 95 2463.0 127V432H2377.0Z"/><path d="M2838.0 166Q2843.0 116 2876.0 96.0Q2909.0 76 2955.0 76Q2971.0 76 2991.5 78.5Q3012.0 81 3030.0 88.0Q3048.0 95 3059.5 108.5Q3071.0 122 3070.0 144.0Q3069.0 166 3054.0 180.0Q3039.0 194 3015.5 202.5Q2992.0 211 2962.0 217.0Q2932.0 223 2901.0 230Q2869.0 237 2839.5 247.0Q2810.0 257 2786.5 274.0Q2763.0 291 2749.0 317.5Q2735.0 344 2735.0 383Q2735.0 425 2755.5 453.5Q2776.0 482 2807.5 499.5Q2839.0 517 2877.5 524.0Q2916.0 531 2951.0 531Q2991.0 531 3027.5 522.5Q3064.0 514 3093.5 495.0Q3123.0 476 3142.5 445.5Q3162.0 415 3167.0 372H3048.0Q3040.0 413 3010.5 427.0Q2981.0 441 2943.0 441Q2931.0 441 2914.5 439.0Q2898.0 437 2883.5 431.5Q2869.0 426 2859.0 415.5Q2849.0 405 2849.0 388Q2849.0 367 2863.5 354.0Q2878.0 341 2901.5 332.5Q2925.0 324 2955.0 318.0Q2985.0 312 3017.0 305Q3048.0 298 3078.0 288.0Q3108.0 278 3131.5 261.0Q3155.0 244 3169.5 218.0Q3184.0 192 3184.0 154Q3184.0 108 3163.0 76.0Q3142.0 44 3108.5 24.0Q3075.0 4 3034.0 -5.0Q2993.0 -14 2953.0 -14Q2904.0 -14 2862.5 -3.0Q2821.0 8 2790.5 30.5Q2760.0 53 2742.5 86.5Q2725.0 120 2724.0 166Z"/></g></svg>