<svg xmlns="http://www.w3.org/2000/svg" width="216.3" height="26.0" viewBox="0 0 216.3 26.0" role="img" aria-label="One hood, one fam"><g transform="translate(-0.940,18.090) scale(0.02475,-0.02475)" fill="#ffffff"><path d="M380.0 629Q323.0 629 281.5 606.0Q240.0 583 214.0 544.5Q188.0 506 175.5 457.0Q163.0 408 163.0 357Q163.0 306 175.5 257.0Q188.0 208 214.0 169.5Q240.0 131 281.5 108.0Q323.0 85 380.0 85Q437.0 85 478.5 108.0Q520.0 131 546.0 169.5Q572.0 208 584.5 257.0Q597.0 306 597.0 357Q597.0 408 584.5 457.0Q572.0 506 546.0 544.5Q520.0 583 478.5 606.0Q437.0 629 380.0 629ZM380.0 731Q460.0 731 523.5 701.0Q587.0 671 631.0 620.0Q675.0 569 698.5 501.0Q722.0 433 722.0 357Q722.0 280 698.5 212.0Q675.0 144 631.0 93.0Q587.0 42 523.5 12.5Q460.0 -17 380.0 -17Q300.0 -17 236.5 12.5Q173.0 42 129.0 93.0Q85.0 144 61.5 212.0Q38.0 280 38.0 357Q38.0 433 61.5 501.0Q85.0 569 129.0 620.0Q173.0 671 236.5 701.0Q300.0 731 380.0 731Z"/><path d="M810.0 517H918.0V441L920.0 439Q946.0 482 988.0 506.5Q1030.0 531 1081.0 531Q1166.0 531 1215.0 487.0Q1264.0 443 1264.0 355V0H1150.0V325Q1148.0 386 1124.0 413.5Q1100.0 441 1049.0 441Q1020.0 441 997.0 430.5Q974.0 420 958.0 401.5Q942.0 383 933.0 358.0Q924.0 333 924.0 305V0H810.0Z"/><path d="M1729.0 304Q1727.0 331 1717.5 356.0Q1708.0 381 1691.5 399.5Q1675.0 418 1651.5 429.5Q1628.0 441 1599.0 441Q1569.0 441 1544.5 430.5Q1520.0 420 1502.5 401.5Q1485.0 383 1474.5 358.0Q1464.0 333 1463.0 304ZM1463.0 229Q1463.0 199 1471.5 171.0Q1480.0 143 1497.0 122.0Q1514.0 101 1540.0 88.5Q1566.0 76 1602.0 76Q1652.0 76 1682.5 97.5Q1713.0 119 1728.0 162H1836.0Q1827.0 120 1805.0 87.0Q1783.0 54 1752.0 31.5Q1721.0 9 1682.5 -2.5Q1644.0 -14 1602.0 -14Q1541.0 -14 1494.0 6.0Q1447.0 26 1414.5 62.0Q1382.0 98 1365.5 148.0Q1349.0 198 1349.0 258Q1349.0 313 1366.5 362.5Q1384.0 412 1416.5 449.5Q1449.0 487 1495.0 509.0Q1541.0 531 1599.0 531Q1660.0 531 1708.5 505.5Q1757.0 480 1789.0 438.0Q1821.0 396 1835.5 341.5Q1850.0 287 1843.0 229Z"/><path d="M2188.0 714H2302.0V449H2304.0Q2325.0 484 2366.5 507.5Q2408.0 531 2459.0 531Q2544.0 531 2593.0 487.0Q2642.0 443 2642.0 355V0H2528.0V325Q2526.0 386 2502.0 413.5Q2478.0 441 2427.0 441Q2398.0 441 2375.0 430.5Q2352.0 420 2336.0 401.5Q2320.0 383 2311.0 358.0Q2302.0 333 2302.0 305V0H2188.0Z"/><path d="M2989.0 -14Q2927.0 -14 2878.5 6.5Q2830.0 27 2796.5 63.0Q2763.0 99 2745.5 149.0Q2728.0 199 2728.0 259Q2728.0 318 2745.5 368.0Q2763.0 418 2796.5 454.0Q2830.0 490 2878.5 510.5Q2927.0 531 2989.0 531Q3051.0 531 3099.5 510.5Q3148.0 490 3181.5 454.0Q3215.0 418 3232.5 368.0Q3250.0 318 3250.0 259Q3250.0 199 3232.5 149.0Q3215.0 99 3181.5 63.0Q3148.0 27 3099.5 6.5Q3051.0 -14 2989.0 -14ZM2989.0 76Q3027.0 76 3055.0 92.0Q3083.0 108 3101.0 134.0Q3119.0 160 3127.5 192.5Q3136.0 225 3136.0 259Q3136.0 292 3127.5 325.0Q3119.0 358 3101.0 383.5Q3083.0 409 3055.0 425.0Q3027.0 441 2989.0 441Q2951.0 441 2923.0 425.0Q2895.0 409 2877.0 383.5Q2859.0 358 2850.5 325.0Q2842.0 292 2842.0 259Q2842.0 225 2850.5 192.5Q2859.0 160 2877.0 134.0Q2895.0 108 2923.0 92.0Q2951.0 76 2989.0 76Z"/><path d="M3572.0 -14Q3510.0 -14 3461.5 6.5Q3413.0 27 3379.5 63.0Q3346.0 99 3328.5 149.0Q3311.0 199 3311.0 259Q3311.0 318 3328.5 368.0Q3346.0 418 3379.5 454.0Q3413.0 490 3461.5 510.5Q3510.0 531 3572.0 531Q3634.0 531 3682.5 510.5Q3731.0 490 3764.5 454.0Q3798.0 418 3815.5 368.0Q3833.0 318 3833.0 259Q3833.0 199 3815.5 149.0Q3798.0 99 3764.5 63.0Q3731.0 27 3682.5 6.5Q3634.0 -14 3572.0 -14ZM3572.0 76Q3610.0 76 3638.0 92.0Q3666.0 108 3684.0 134.0Q3702.0 160 3710.5 192.5Q3719.0 225 3719.0 259Q3719.0 292 3710.5 325.0Q3702.0 358 3684.0 383.5Q3666.0 409 3638.0 425.0Q3610.0 441 3572.0 441Q3534.0 441 3506.0 425.0Q3478.0 409 3460.0 383.5Q3442.0 358 3433.5 325.0Q3425.0 292 3425.0 259Q3425.0 225 3433.5 192.5Q3442.0 160 3460.0 134.0Q3478.0 108 3506.0 92.0Q3534.0 76 3572.0 76Z"/><path d="M4405.0 0H4297.0V70H4295.0Q4272.0 25 4228.0 5.5Q4184.0 -14 4135.0 -14Q4074.0 -14 4028.5 7.5Q3983.0 29 3953.0 66.0Q3923.0 103 3908.0 153.5Q3893.0 204 3893.0 262Q3893.0 332 3912.0 383.0Q3931.0 434 3962.5 467.0Q3994.0 500 4034.5 515.5Q4075.0 531 4117.0 531Q4141.0 531 4166.0 526.5Q4191.0 522 4214.0 512.0Q4237.0 502 4256.5 486.5Q4276.0 471 4289.0 450H4291.0V714H4405.0ZM4007.0 253Q4007.0 220 4015.5 188.0Q4024.0 156 4041.5 131.0Q4059.0 106 4086.0 91.0Q4113.0 76 4150.0 76Q4188.0 76 4215.5 92.0Q4243.0 108 4260.5 134.0Q4278.0 160 4286.5 192.5Q4295.0 225 4295.0 259Q4295.0 345 4256.5 393.0Q4218.0 441 4152.0 441Q4112.0 441 4084.5 424.5Q4057.0 408 4039.5 381.5Q4022.0 355 4014.5 321.5Q4007.0 288 4007.0 253Z"/><path d="M4528.0 135H4667.0V0Q4666.0 -62 4629.0 -104.0Q4592.0 -146 4532.0 -158V-97Q4565.0 -89 4581.5 -60.5Q4598.0 -32 4597.0 0H4528.0Z"/><path d="M5292.0 -14Q5230.0 -14 5181.5 6.5Q5133.0 27 5099.5 63.0Q5066.0 99 5048.5 149.0Q5031.0 199 5031.0 259Q5031.0 318 5048.5 368.0Q5066.0 418 5099.5 454.0Q5133.0 490 5181.5 510.5Q5230.0 531 5292.0 531Q5354.0 531 5402.5 510.5Q5451.0 490 5484.5 454.0Q5518.0 418 5535.5 368.0Q5553.0 318 5553.0 259Q5553.0 199 5535.5 149.0Q5518.0 99 5484.5 63.0Q5451.0 27 5402.5 6.5Q5354.0 -14 5292.0 -14ZM5292.0 76Q5330.0 76 5358.0 92.0Q5386.0 108 5404.0 134.0Q5422.0 160 5430.5 192.5Q5439.0 225 5439.0 259Q5439.0 292 5430.5 325.0Q5422.0 358 5404.0 383.5Q5386.0 409 5358.0 425.0Q5330.0 441 5292.0 441Q5254.0 441 5226.0 425.0Q5198.0 409 5180.0 383.5Q5162.0 358 5153.5 325.0Q5145.0 292 5145.0 259Q5145.0 225 5153.5 192.5Q5162.0 160 5180.0 134.0Q5198.0 108 5226.0 92.0Q5254.0 76 5292.0 76Z"/><path d="M5638.0 517H5746.0V441L5748.0 439Q5774.0 482 5816.0 506.5Q5858.0 531 5909.0 531Q5994.0 531 6043.0 487.0Q6092.0 443 6092.0 355V0H5978.0V325Q5976.0 386 5952.0 413.5Q5928.0 441 5877.0 441Q5848.0 441 5825.0 430.5Q5802.0 420 5786.0 401.5Q5770.0 383 5761.0 358.0Q5752.0 333 5752.0 305V0H5638.0Z"/><path d="M6557.0 304Q6555.0 331 6545.5 356.0Q6536.0 381 6519.5 399.5Q6503.0 418 6479.5 429.5Q6456.0 441 6427.0 441Q6397.0 441 6372.5 430.5Q6348.0 420 6330.5 401.5Q6313.0 383 6302.5 358.0Q6292.0 333 6291.0 304ZM6291.0 229Q6291.0 199 6299.5 171.0Q6308.0 143 6325.0 122.0Q6342.0 101 6368.0 88.5Q6394.0 76 6430.0 76Q6480.0 76 6510.5 97.5Q6541.0 119 6556.0 162H6664.0Q6655.0 120 6633.0 87.0Q6611.0 54 6580.0 31.5Q6549.0 9 6510.5 -2.5Q6472.0 -14 6430.0 -14Q6369.0 -14 6322.0 6.0Q6275.0 26 6242.5 62.0Q6210.0 98 6193.5 148.0Q6177.0 198 6177.0 258Q6177.0 313 6194.5 362.5Q6212.0 412 6244.5 449.5Q6277.0 487 6323.0 509.0Q6369.0 531 6427.0 531Q6488.0 531 6536.5 505.5Q6585.0 480 6617.0 438.0Q6649.0 396 6663.5 341.5Q6678.0 287 6671.0 229Z"/><path d="M6965.0 517H7050.0V560Q7050.0 609 7062.0 639.5Q7074.0 670 7094.0 686.5Q7114.0 703 7139.5 708.5Q7165.0 714 7193.0 714Q7248.0 714 7273.0 707V618Q7262.0 621 7249.5 622.5Q7237.0 624 7220.0 624Q7197.0 624 7180.5 613.0Q7164.0 602 7164.0 570V517H7261.0V432H7164.0V0H7050.0V432H6965.0Z"/><path d="M7754.0 115Q7754.0 94 7759.5 85.0Q7765.0 76 7781.0 76Q7786.0 76 7793.0 76Q7800.0 76 7809.0 78V-1Q7803.0 -3 7793.5 -5.5Q7784.0 -8 7774.0 -10.0Q7764.0 -12 7754.0 -13.0Q7744.0 -14 7737.0 -14Q7702.0 -14 7679.0 0.0Q7656.0 14 7649.0 49Q7615.0 16 7565.5 1.0Q7516.0 -14 7470.0 -14Q7435.0 -14 7403.0 -4.5Q7371.0 5 7346.5 23.5Q7322.0 42 7307.5 70.5Q7293.0 99 7293.0 137Q7293.0 185 7310.5 215.0Q7328.0 245 7356.5 262.0Q7385.0 279 7420.5 286.5Q7456.0 294 7492.0 298Q7523.0 304 7551.0 306.5Q7579.0 309 7600.5 315.0Q7622.0 321 7634.5 333.5Q7647.0 346 7647.0 371Q7647.0 393 7636.5 407.0Q7626.0 421 7610.5 428.5Q7595.0 436 7576.0 438.5Q7557.0 441 7540.0 441Q7492.0 441 7461.0 421.0Q7430.0 401 7426.0 359H7312.0Q7315.0 409 7336.0 442.0Q7357.0 475 7389.5 495.0Q7422.0 515 7463.0 523.0Q7504.0 531 7547.0 531Q7585.0 531 7622.0 523.0Q7659.0 515 7688.5 497.0Q7718.0 479 7736.0 450.5Q7754.0 422 7754.0 381ZM7640.0 259Q7614.0 242 7576.0 238.5Q7538.0 235 7500.0 228Q7482.0 225 7465.0 219.5Q7448.0 214 7435.0 204.5Q7422.0 195 7414.5 179.5Q7407.0 164 7407.0 142Q7407.0 123 7418.0 110.0Q7429.0 97 7444.5 89.5Q7460.0 82 7478.5 79.0Q7497.0 76 7512.0 76Q7531.0 76 7553.0 81.0Q7575.0 86 7594.5 98.0Q7614.0 110 7627.0 128.5Q7640.0 147 7640.0 174Z"/><path d="M7867.0 517H7975.0V445H7978.0Q7991.0 464 8006.0 480.0Q8021.0 496 8039.5 507.0Q8058.0 518 8082.0 524.5Q8106.0 531 8137.0 531Q8184.0 531 8224.5 510.0Q8265.0 489 8282.0 445Q8311.0 485 8349.0 508.0Q8387.0 531 8444.0 531Q8526.0 531 8571.5 491.0Q8617.0 451 8617.0 357V0H8503.0V302Q8503.0 333 8501.0 358.5Q8499.0 384 8489.5 402.5Q8480.0 421 8461.0 431.0Q8442.0 441 8409.0 441Q8351.0 441 8325.0 405.0Q8299.0 369 8299.0 303V0H8185.0V332Q8185.0 386 8165.5 413.5Q8146.0 441 8094.0 441Q8072.0 441 8051.5 432.0Q8031.0 423 8015.5 406.0Q8000.0 389 7990.5 364.0Q7981.0 339 7981.0 307V0H7867.0Z"/></g></svg>