<svg width="32" height="32" viewBox="0 0 32 32" fill="none" xmlns="http://www.w3.org/2000/svg">
<rect width="32" height="32" rx="16" fill="#FF5F00"/>
<path fill-rule="evenodd" clip-rule="evenodd" d="M14.9653 5.13533C14.8603 5.16251 14.7056 5.25795 14.6216 5.34745L14.4688 5.51008L14.4525 14.6975C14.4379 22.9295 14.4464 23.9062 14.5342 24.0911C14.6133 24.2578 15.1383 24.634 17.2692 26.0509C18.7196 27.0153 19.9625 27.8095 20.0313 27.8156C20.3351 27.843 20.4634 27.7991 20.6625 27.6L20.875 27.3875V18.3924C20.875 8.47301 20.8999 9.0987 20.4844 8.59458C20.2644 8.3277 15.5491 5.16095 15.3011 5.11351C15.2214 5.09826 15.0703 5.10808 14.9653 5.13533ZM12.5313 6.95089C12.3346 7.06433 7.92613 10.3731 7.73438 10.5513C7.51638 10.7537 7.50288 11.0485 7.70313 11.2322C7.78044 11.3032 8.81094 11.8305 9.993 12.404C11.6672 13.2163 12.177 13.438 12.2994 13.4073C12.4781 13.3625 12.9918 13.0316 13.1094 12.8856C13.1693 12.8112 13.1875 12.1298 13.1875 9.96133V7.13408L13.0228 7.00458C12.8378 6.85895 12.7141 6.84545 12.5313 6.95089Z" fill="white"/>
</svg>
