<svg width="32" height="32" viewBox="0 0 32 32" fill="none" xmlns="http://www.w3.org/2000/svg">
<rect width="32" height="32" rx="16" fill="#0160A9"/>
<path d="M11.3639 21.6652C11.3115 21.6361 11.2592 21.6079 11.2079 21.5787C11.0217 21.471 10.9322 21.2718 10.9845 21.0806C11.0368 20.8874 11.226 20.7344 11.4202 20.7465C11.6285 20.7586 11.7795 20.8632 11.8408 21.0675C11.9032 21.2758 11.8086 21.4811 11.6164 21.5857C11.5641 21.6139 11.5098 21.6391 11.4564 21.6662H11.3659L11.3639 21.6652Z" fill="#FCB618"/>
<path d="M15.917 18.3565C15.762 19.2017 15.607 20.047 15.4521 20.8913C15.445 20.9285 15.4521 20.9768 15.432 21.0009C15.3867 21.0533 15.3263 21.0935 15.273 21.1378C15.2307 21.0764 15.1472 21.009 15.1542 20.9526C15.1905 20.6457 15.2438 20.3408 15.3001 20.0369C15.598 18.4118 15.8958 16.7877 16.1997 15.1636C16.3195 14.5236 16.7391 14.1181 17.2986 13.8363C17.3821 13.794 17.4888 13.784 17.5854 13.783C18.169 13.7779 18.7527 13.7769 19.3363 13.783C19.773 13.787 20.2409 14.1452 20.3365 14.5397C20.3556 14.6182 20.3647 14.7057 20.3526 14.7852C20.2047 15.716 20.0588 16.6478 19.8968 17.5766C19.7589 18.3716 19.1501 18.8727 18.3451 18.8838C17.9285 18.8898 17.5119 18.9129 17.0953 18.916C16.727 18.919 16.4241 18.7479 16.1615 18.5074C16.0981 18.449 16.0719 18.3504 16.0297 18.2699C15.9935 18.2981 15.9562 18.3273 15.92 18.3555L15.917 18.3565ZM17.8138 18.6131C17.8138 18.603 17.8138 18.5939 17.8138 18.5839C17.9879 18.5839 18.162 18.5869 18.3371 18.5839C18.9992 18.5718 19.4872 18.1633 19.5979 17.5142C19.7428 16.6669 19.8807 15.8176 20.0155 14.9684C20.095 14.4672 19.7629 14.0869 19.2487 14.0828C18.7718 14.0788 18.2938 14.0828 17.8168 14.0818C17.2322 14.0818 16.6113 14.587 16.5026 15.1606C16.3477 15.9756 16.1977 16.7917 16.0498 17.6078C16.0337 17.6943 16.0206 17.794 16.0458 17.8745C16.1645 18.2488 16.7401 18.6302 17.1326 18.6151C17.359 18.607 17.5864 18.6131 17.8138 18.6131Z" fill="white"/>
<path d="M27.7197 18.8997C27.3101 18.8997 26.8986 18.9259 26.4931 18.8907C26.2385 18.8685 25.9728 18.789 25.7454 18.6713C25.4123 18.4992 25.2664 18.1742 25.3218 17.8109C25.4667 16.857 25.6146 15.902 25.8088 14.9572C25.9527 14.2608 26.5695 13.8181 27.281 13.8171C27.8495 13.8171 28.418 13.815 28.9856 13.8171C29.5712 13.8201 30.0422 14.3081 29.9969 14.8897C29.9617 15.3476 29.8822 15.8024 29.8379 16.2603C29.8188 16.4595 29.7111 16.5159 29.538 16.5169C29.2573 16.5179 28.9775 16.5219 28.6968 16.5229C27.8254 16.5259 26.9539 16.537 26.0825 16.5259C25.8511 16.5229 25.7565 16.6024 25.7373 16.8238C25.7122 17.1096 25.6629 17.3923 25.6357 17.6771C25.5804 18.2678 25.8702 18.5898 26.4709 18.5948C27.289 18.6019 28.1081 18.5968 28.9262 18.5968C28.9866 18.5968 29.057 18.5777 29.1053 18.6029C29.1828 18.6421 29.2452 18.7095 29.3136 18.7649C29.2442 18.8092 29.1758 18.8877 29.1043 18.8917C28.8175 18.9068 28.5287 18.8987 28.2409 18.8987C28.0669 18.8987 27.8928 18.8987 27.7177 18.8987L27.7197 18.8997ZM25.845 16.2311C26.001 16.2311 26.1056 16.2311 26.2103 16.2311C27.2337 16.2271 28.257 16.22 29.2804 16.221C29.4716 16.221 29.5702 16.1727 29.5823 15.9594C29.6024 15.6283 29.6578 15.2993 29.693 14.9692C29.7473 14.4742 29.4273 14.1189 28.9262 14.1179C28.3647 14.1169 27.8032 14.131 27.2437 14.1129C26.8543 14.1008 26.5816 14.2709 26.3532 14.5617C25.9768 15.0437 26.005 15.6384 25.844 16.2311H25.845Z" fill="white"/>
<path d="M12.6457 16.1679C12.3569 15.7252 12.0933 15.3136 11.8196 14.9091C11.7904 14.8658 11.7018 14.8437 11.6405 14.8427C11.0498 14.8376 10.4581 14.8336 9.86741 14.8467C9.78187 14.8487 9.68628 14.9272 9.61685 14.9926C9.47295 15.1285 9.321 15.2049 9.12579 15.1274C8.94969 15.057 8.84202 14.9302 8.83296 14.734C8.8239 14.5297 8.91447 14.3738 9.10365 14.3053C9.29283 14.2369 9.49307 14.254 9.61383 14.4361C9.70842 14.58 9.82615 14.6022 9.9791 14.6002C10.5396 14.5931 11.1011 14.6002 11.6616 14.5901C11.8316 14.5871 11.9393 14.6374 12.0319 14.7873C12.2855 15.1999 12.5602 15.5984 12.8168 16.0089C12.9033 16.1478 13.006 16.1971 13.168 16.1951C13.8653 16.1871 14.5627 16.1881 15.26 16.1971C15.3355 16.1971 15.4099 16.2686 15.4854 16.3078C15.413 16.3491 15.3415 16.4235 15.2681 16.4265C14.935 16.4396 14.5999 16.4477 14.2678 16.4265C14.0243 16.4114 13.8804 16.4889 13.7637 16.7073C13.5423 17.1199 13.2817 17.5113 13.0543 17.9209C12.9627 18.0849 12.85 18.1422 12.6699 18.1231C12.5199 18.107 12.367 18.1211 12.216 18.1131C12.0208 18.103 11.8608 18.1241 11.727 18.3103C11.5932 18.4954 11.2792 18.4824 11.1162 18.3254C10.9401 18.1573 10.929 17.8937 11.09 17.7136C11.254 17.5294 11.5489 17.4791 11.6898 17.6703C11.8689 17.9118 12.0923 17.8736 12.3287 17.9017C12.7131 17.947 12.9506 17.8132 13.1086 17.457C13.2304 17.1823 13.4115 16.9347 13.5644 16.6731C13.6007 16.6107 13.6309 16.5443 13.6892 16.4306C13.5564 16.4306 13.4699 16.4306 13.3833 16.4306C11.9051 16.4306 10.4279 16.4326 8.94969 16.4286C8.78063 16.4286 8.65787 16.4527 8.55121 16.6117C8.40127 16.8351 8.10945 16.8441 7.91424 16.668C7.7321 16.504 7.73009 16.1871 7.91021 16.018C8.09033 15.8489 8.38014 15.8731 8.56328 16.0562C8.62466 16.1186 8.72026 16.185 8.79975 16.185C10.0355 16.1931 11.2701 16.1901 12.5058 16.1891C12.535 16.1891 12.5642 16.18 12.6508 16.1659L12.6457 16.1679Z" fill="#FCB618"/>
<path d="M22.0192 18.887C21.5493 18.887 21.0794 18.887 20.6094 18.887C20.4937 18.887 20.3538 18.896 20.3518 18.74C20.3498 18.5841 20.4877 18.5891 20.6044 18.5891C21.4909 18.5891 22.3785 18.5891 23.265 18.5891C23.8708 18.5891 24.3679 18.1655 24.4222 17.5647C24.4443 17.3232 24.4141 17.0646 24.3497 16.8301C24.2632 16.5162 24.0448 16.3884 23.7178 16.3874C23.2177 16.3864 22.7156 16.3652 22.2175 16.3924C21.4024 16.4367 20.8962 15.8359 21.0431 14.9575C21.1629 14.238 21.7868 13.7359 22.5193 13.7359C23.2851 13.7359 24.0509 13.7359 24.8167 13.7359C24.877 13.7359 24.9495 13.7198 24.9958 13.7459C25.0521 13.7781 25.1115 13.8435 25.1226 13.9039C25.1286 13.9371 25.0451 14.0045 24.9897 14.0257C24.9294 14.0478 24.8549 14.0357 24.7875 14.0357C24.0217 14.0357 23.2559 14.0337 22.4902 14.0357C21.7324 14.0377 21.1649 14.7763 21.3581 15.5029C21.4587 15.8792 21.7053 16.0805 22.0947 16.0845C22.6029 16.0895 23.11 16.0855 23.6182 16.0865C24.2481 16.0865 24.5832 16.3572 24.715 16.972C24.9002 17.8354 24.4383 18.6565 23.6313 18.8527C23.4079 18.9071 23.1654 18.8829 22.9309 18.887C22.628 18.892 22.3241 18.888 22.0212 18.888L22.0192 18.887Z" fill="white"/>
<path d="M12.5051 13.482C12.2546 13.4861 12.0694 13.315 12.0614 13.0695C12.0523 12.8098 12.2294 12.6146 12.481 12.6046C12.7305 12.5955 12.9348 12.7857 12.9408 13.0322C12.9469 13.2848 12.7607 13.477 12.5051 13.482Z" fill="#FCB618"/>
<path d="M12.0098 19.5276C12.0098 19.2639 12.1849 19.0878 12.4485 19.0899C12.7001 19.0919 12.8983 19.2901 12.8923 19.5336C12.8872 19.761 12.684 19.9623 12.4525 19.9683C12.202 19.9744 12.0108 19.7842 12.0098 19.5276Z" fill="#FCB618"/>
<path d="M10.3374 13.4822C10.0919 13.4822 9.88159 13.281 9.88159 13.0445C9.88159 12.81 10.0979 12.6017 10.3374 12.6048C10.582 12.6078 10.7621 12.7889 10.7671 13.0344C10.7721 13.2971 10.594 13.4822 10.3374 13.4822Z" fill="#FCB618"/>
<path d="M11.8537 11.4313C11.8537 11.6809 11.6535 11.8811 11.409 11.8761C11.1775 11.8711 10.9773 11.6708 10.9723 11.4394C10.9672 11.2039 11.1785 10.9835 11.413 10.9805C11.6525 10.9775 11.8537 11.1838 11.8527 11.4323L11.8537 11.4313Z" fill="#FCB618"/>
<path d="M7.16068 18.3747C6.98056 18.3777 6.79641 18.2006 6.78836 18.0164C6.78031 17.8343 6.95238 17.6522 7.14055 17.6441C7.33879 17.6351 7.52595 17.8132 7.52294 18.0074C7.51992 18.1925 7.34382 18.3717 7.16068 18.3747Z" fill="#FCB618"/>
<path d="M9.65133 21.1881C9.65133 21.3782 9.47926 21.5523 9.28706 21.5553C9.0999 21.5584 8.92581 21.3823 8.9248 21.1901C8.9248 20.9989 9.09688 20.8218 9.28505 20.8218C9.47523 20.8218 9.65033 20.9969 9.65133 21.1871V21.1881Z" fill="#FCB618"/>
<path d="M9.66708 18.0114C9.66507 18.2066 9.494 18.3787 9.30784 18.3747C9.11162 18.3697 8.95967 18.2046 8.96269 18.0004C8.96571 17.7921 9.11967 17.6401 9.31992 17.6451C9.52419 17.6502 9.6701 17.8051 9.66708 18.0124V18.0114Z" fill="#FCB618"/>
<path d="M7.1485 14.3618C7.36384 14.3658 7.49566 14.5037 7.49264 14.7211C7.48862 14.9283 7.33969 15.0722 7.1324 15.0692C6.93014 15.0652 6.78121 14.9102 6.78524 14.707C6.78926 14.5017 6.9392 14.3588 7.14951 14.3628L7.1485 14.3618Z" fill="#FCB618"/>
<path d="M6.05089 16.7015C5.84662 16.7015 5.69266 16.5485 5.69165 16.3462C5.69165 16.149 5.85265 15.9769 6.04183 15.9739C6.23705 15.9709 6.39604 16.1329 6.39805 16.3362C6.39906 16.5435 6.24912 16.7015 6.05089 16.7015Z" fill="#FCB618"/>
<path d="M9.62289 11.4454C9.61887 11.6517 9.46491 11.8036 9.26265 11.7986C9.06139 11.7935 8.91548 11.6386 8.9185 11.4293C8.92152 11.2341 9.09259 11.062 9.27875 11.068C9.46893 11.0741 9.62692 11.2461 9.62289 11.4444V11.4454Z" fill="#FCB618"/>
<path d="M8.58626 13.0534C8.58223 13.2637 8.43733 13.4016 8.225 13.3965C8.01872 13.3915 7.8718 13.2406 7.87683 13.0363C7.88086 12.833 8.03281 12.6901 8.24211 12.6932C8.4484 12.6952 8.59129 12.8441 8.58626 13.0544V13.0534Z" fill="#FCB618"/>
<path d="M10.7168 19.5136C10.7198 19.7239 10.5799 19.8738 10.3757 19.8798C10.1694 19.8849 10.0184 19.742 10.0124 19.5357C10.0064 19.3254 10.1442 19.1785 10.3535 19.1745C10.5679 19.1694 10.7138 19.3063 10.7168 19.5136Z" fill="#FCB618"/>
<path d="M4.23535 16.3417C4.25145 16.1707 4.35208 16.067 4.51006 16.065C4.67207 16.062 4.78578 16.1777 4.78478 16.3357C4.78377 16.4907 4.68113 16.6064 4.51208 16.6074C4.34302 16.6074 4.25749 16.5017 4.23636 16.3427L4.23535 16.3417Z" fill="#FCB618"/>
<path d="M6.90897 21.1895C6.91702 21.0164 7.01261 20.9148 7.17865 20.9178C7.34569 20.9218 7.44028 21.0285 7.43424 21.2006C7.42921 21.3616 7.33361 21.4592 7.17764 21.4602C7.0106 21.4612 6.91601 21.3605 6.90796 21.1895H6.90897Z" fill="#FCB618"/>
<path d="M5.05038 14.9805C4.88937 14.9654 4.78372 14.8769 4.78875 14.7068C4.79378 14.5378 4.90447 14.4422 5.07151 14.4472C5.22949 14.4512 5.33213 14.5569 5.33113 14.7088C5.33113 14.8698 5.23151 14.9725 5.05038 14.9815V14.9805Z" fill="#FCB618"/>
<path d="M5.30392 17.9804C5.30392 18.1816 5.19827 18.2803 5.03827 18.2782C4.87726 18.2762 4.77563 18.1736 4.77966 17.9975C4.78368 17.8345 4.87827 17.7419 5.03424 17.7389C5.2033 17.7349 5.29587 17.8345 5.30392 17.9804Z" fill="#FCB618"/>
<path d="M6.8728 11.4613C6.8889 11.3003 6.97444 11.1987 7.14651 11.2007C7.32261 11.2027 7.40109 11.3134 7.40109 11.4794C7.40109 11.6455 7.29443 11.7381 7.14651 11.7381C6.98852 11.7381 6.88287 11.6394 6.8728 11.4613Z" fill="#FCB618"/>
<path d="M6.11212 19.7922C5.93804 19.7731 5.85552 19.6715 5.86357 19.5024C5.87062 19.3354 5.97225 19.2579 6.13426 19.2659C6.29325 19.274 6.38985 19.3605 6.38683 19.5246C6.38382 19.6966 6.28319 19.7832 6.11212 19.7912V19.7922Z" fill="#FCB618"/>
<path d="M8.27557 19.2644C8.43658 19.2775 8.53419 19.363 8.52714 19.5391C8.5211 19.7021 8.42652 19.7887 8.26551 19.7887C8.08941 19.7887 8.00388 19.686 8.00589 19.515C8.00791 19.3489 8.10451 19.2714 8.27557 19.2644Z" fill="#FCB618"/>
<path d="M6.3527 13.0275C6.35068 13.1956 6.27924 13.2972 6.11119 13.3042C5.94113 13.3113 5.83447 13.2308 5.82843 13.0547C5.82239 12.8937 5.90591 12.7961 6.06893 12.785C6.24301 12.7729 6.33559 12.8645 6.3527 13.0275Z" fill="#FCB618"/>
<path d="M3.45247 14.5457C3.5048 14.6322 3.56014 14.6845 3.55109 14.7207C3.53901 14.766 3.47461 14.7972 3.43235 14.8345C3.39813 14.7932 3.33776 14.7529 3.33574 14.7107C3.33373 14.6704 3.3921 14.6272 3.45247 14.5467V14.5457Z" fill="#FCB618"/>
<path d="M3.50071 18.1653C3.43933 18.0899 3.37795 18.0476 3.38097 18.0094C3.38399 17.9651 3.44235 17.9248 3.47757 17.8826C3.51983 17.9188 3.58423 17.949 3.59631 17.9943C3.60637 18.0285 3.55103 18.0818 3.50071 18.1653Z" fill="#FCB618"/>
<path d="M4.46292 19.3577C4.51525 19.4412 4.56858 19.4885 4.56355 19.5277C4.55751 19.57 4.49814 19.6062 4.46192 19.6445C4.42267 19.6052 4.35928 19.57 4.35223 19.5257C4.34619 19.4885 4.40556 19.4402 4.46292 19.3577Z" fill="#FCB618"/>
<path d="M4.67094 13.0547C4.58541 13.11 4.54012 13.1634 4.49987 13.1583C4.4566 13.1533 4.41937 13.0949 4.38013 13.0597C4.41937 13.0215 4.45358 12.9601 4.49887 12.951C4.53509 12.944 4.5844 12.9993 4.67094 13.0547Z" fill="#FCB618"/>
<path d="M3.03291 16.319C2.95241 16.3683 2.90009 16.4237 2.86789 16.4146C2.82764 16.4025 2.78537 16.3381 2.78135 16.2919C2.77833 16.2637 2.84675 16.1993 2.87694 16.2033C2.92021 16.2083 2.95845 16.2607 3.03392 16.32L3.03291 16.319Z" fill="#FCB618"/>
</svg>
